<svg width="102" height="17" viewBox="0 0 102 17" fill="none" xmlns="http://www.w3.org/2000/svg">
<path d="M0.695007 0.92906H4.11861V16.2135H0.695007V0.92906Z" fill="white"/>
<path d="M15.0567 3.57571C13.4619 3.57571 12.3061 4.02418 11.5892 4.9211C10.8869 5.80332 10.5358 7.01637 10.5358 8.56025C10.5358 9.31013 10.6236 9.99385 10.7991 10.6114C10.9747 11.2143 11.2381 11.7362 11.5892 12.1773C11.9403 12.6185 12.3793 12.964 12.906 13.214C13.4327 13.4492 14.0472 13.5668 14.7495 13.5668C15.1299 13.5668 15.4517 13.5595 15.7151 13.5448C15.9931 13.5301 16.2345 13.5007 16.4393 13.4566V8.14119H19.8629V15.7062C19.4532 15.868 18.7949 16.037 17.8878 16.2135C16.9806 16.4046 15.8614 16.5002 14.53 16.5002C13.3888 16.5002 12.35 16.3238 11.4136 15.9709C10.4919 15.618 9.70184 15.1034 9.04346 14.427C8.38507 13.7506 7.873 12.9199 7.50723 11.9347C7.15609 10.9496 6.98052 9.82476 6.98052 8.56025C6.98052 7.28103 7.17803 6.14885 7.57306 5.16371C7.9681 4.17856 8.50943 3.34781 9.19708 2.67144C9.88473 1.98037 10.6894 1.45839 11.6112 1.1055C12.5475 0.752616 13.5424 0.576172 14.5958 0.576172C15.3127 0.576172 15.9565 0.627635 16.5271 0.73056C17.1123 0.818782 17.6098 0.92906 18.0194 1.06139C18.4437 1.17902 18.7875 1.304 19.0509 1.43634C19.3289 1.56867 19.5264 1.67159 19.6434 1.74511L18.6559 4.50204C18.1877 4.25208 17.6463 4.03888 17.0319 3.86244C16.432 3.67129 15.7736 3.57571 15.0567 3.57571Z" fill="white"/>
<path d="M27.1962 13.5889C27.679 13.5889 28.074 13.5521 28.3813 13.4786C28.7031 13.3904 28.9592 13.2801 29.1494 13.1478C29.3396 13.0007 29.4713 12.8317 29.5444 12.6405C29.6176 12.4494 29.6541 12.2362 29.6541 12.0009C29.6541 11.501 29.42 11.0893 28.9519 10.7658C28.4837 10.4276 27.679 10.0674 26.5378 9.68508C26.0403 9.50863 25.5429 9.31013 25.0455 9.08958C24.548 8.85432 24.1018 8.5676 23.7067 8.22942C23.3117 7.87653 22.9898 7.45747 22.7411 6.97225C22.4924 6.47233 22.368 5.86948 22.368 5.16371C22.368 4.45793 22.4997 3.82568 22.7631 3.26694C23.0264 2.6935 23.3995 2.20828 23.8823 1.81128C24.3651 1.41428 24.9504 1.11286 25.638 0.907005C26.3256 0.68645 27.1011 0.576172 27.9643 0.576172C28.9884 0.576172 29.8736 0.68645 30.6198 0.907005C31.3659 1.12756 31.9804 1.37017 32.4632 1.63483L31.4757 4.34765C31.0514 4.1271 30.5759 3.93595 30.0492 3.77421C29.5371 3.59777 28.9153 3.50955 28.1838 3.50955C27.3644 3.50955 26.7719 3.62718 26.4061 3.86244C26.055 4.08299 25.8794 4.42853 25.8794 4.89904C25.8794 5.17841 25.9452 5.41367 26.0769 5.60482C26.2086 5.79596 26.3915 5.97241 26.6256 6.13415C26.8743 6.28118 27.1523 6.42087 27.4595 6.5532C27.7814 6.67083 28.1325 6.79581 28.5129 6.92814C29.303 7.22222 29.9907 7.51629 30.5759 7.81036C31.1611 8.08973 31.6439 8.42056 32.0243 8.80286C32.4194 9.18515 32.712 9.63361 32.9022 10.1482C33.0924 10.6629 33.1875 11.2878 33.1875 12.023C33.1875 13.4492 32.69 14.5593 31.6951 15.3533C30.7002 16.1326 29.2006 16.5223 27.1962 16.5223C26.5232 16.5223 25.916 16.4782 25.3746 16.3899C24.8333 16.3164 24.3505 16.2208 23.9262 16.1032C23.5165 15.9856 23.1581 15.8606 22.8508 15.7283C22.5582 15.5959 22.3095 15.471 22.1047 15.3533L23.0703 12.6185C23.5239 12.8684 24.0798 13.0963 24.7382 13.3022C25.4112 13.4933 26.2305 13.5889 27.1962 13.5889Z" fill="white"/>
<path d="M46.6734 0.92906V3.86244H42.0866V16.2135H38.663V3.86244H34.0763V0.92906H46.6734Z" fill="white"/>
<path d="M54.8211 16.5223C53.753 16.5223 52.8313 16.3752 52.0558 16.0812C51.2804 15.7724 50.6367 15.3533 50.1246 14.824C49.6271 14.28 49.254 13.6404 49.0053 12.9052C48.7712 12.1553 48.6542 11.3319 48.6542 10.435V0.92906H52.0778V10.1482C52.0778 10.7658 52.1436 11.2951 52.2753 11.7362C52.4216 12.1626 52.6118 12.5155 52.8459 12.7949C53.0946 13.0596 53.3872 13.2507 53.7237 13.3683C54.0749 13.486 54.4553 13.5448 54.8649 13.5448C55.6989 13.5448 56.3719 13.2875 56.884 12.7728C57.4107 12.2582 57.674 11.3833 57.674 10.1482V0.92906H61.0977V10.435C61.0977 11.3319 60.9733 12.1553 60.7246 12.9052C60.4758 13.6551 60.0954 14.302 59.5834 14.8461C59.0713 15.3754 58.4202 15.7871 57.6302 16.0812C56.8401 16.3752 55.9037 16.5223 54.8211 16.5223Z" fill="white"/>
<path d="M67.8139 13.4124C67.9748 13.4272 68.1577 13.4419 68.3625 13.4566C68.582 13.4566 68.838 13.4566 69.1306 13.4566C70.8424 13.4566 72.108 13.0228 72.9273 12.1553C73.7613 11.2878 74.1782 10.0894 74.1782 8.56025C74.1782 6.95755 73.7832 5.7445 72.9931 4.9211C72.2031 4.09769 70.9522 3.68599 69.2404 3.68599C69.0063 3.68599 68.7649 3.69334 68.5161 3.70805C68.2674 3.70805 68.0333 3.72275 67.8139 3.75216V13.4124ZM77.7116 8.56025C77.7116 9.88357 77.5067 11.0378 77.0971 12.023C76.6874 13.0081 76.1022 13.8242 75.3414 14.4711C74.5952 15.1181 73.6808 15.6033 72.5981 15.9268C71.5154 16.2502 70.3011 16.412 68.9551 16.412C68.3406 16.412 67.6236 16.3826 66.8043 16.3238C65.985 16.2797 65.1803 16.1767 64.3903 16.015V1.12756C65.1803 0.980523 65.9996 0.884949 66.8482 0.840838C67.7114 0.782023 68.4503 0.752616 69.0648 0.752616C70.3669 0.752616 71.5447 0.899653 72.5981 1.19373C73.6662 1.4878 74.5806 1.95096 75.3414 2.58322C76.1022 3.21548 76.6874 4.02418 77.0971 5.00932C77.5067 5.99446 77.7116 7.17811 77.7116 8.56025Z" fill="white"/>
<path d="M80.5713 0.92906H83.9949V16.2135H80.5713V0.92906Z" fill="white"/>
<path d="M90.3901 8.56025C90.3901 9.31013 90.4779 9.9865 90.6534 10.5893C90.8436 11.1922 91.107 11.7142 91.4435 12.1553C91.7946 12.5817 92.2189 12.9125 92.7164 13.1478C93.2138 13.383 93.7844 13.5007 94.4282 13.5007C95.0573 13.5007 95.6206 13.383 96.118 13.1478C96.6301 12.9125 97.0544 12.5817 97.3909 12.1553C97.742 11.7142 98.0054 11.1922 98.181 10.5893C98.3712 9.9865 98.4663 9.31013 98.4663 8.56025C98.4663 7.81036 98.3712 7.13399 98.181 6.53115C98.0054 5.91359 97.742 5.39161 97.3909 4.96521C97.0544 4.5241 96.6301 4.18592 96.118 3.95066C95.6206 3.7154 95.0573 3.59777 94.4282 3.59777C93.7844 3.59777 93.2138 3.72275 92.7164 3.97271C92.2189 4.20797 91.7946 4.54615 91.4435 4.98726C91.107 5.41367 90.8436 5.93565 90.6534 6.5532C90.4779 7.15605 90.3901 7.82507 90.3901 8.56025ZM102 8.56025C102 9.86887 101.802 11.0231 101.407 12.023C101.027 13.0081 100.5 13.8389 99.8269 14.5152C99.1539 15.1769 98.3492 15.6768 97.4129 16.015C96.4911 16.3532 95.4962 16.5223 94.4282 16.5223C93.3894 16.5223 92.4091 16.3532 91.4874 16.015C90.5657 15.6768 89.761 15.1769 89.0733 14.5152C88.3857 13.8389 87.8443 13.0081 87.4493 12.023C87.0543 11.0231 86.8568 9.86887 86.8568 8.56025C86.8568 7.25162 87.0616 6.10474 87.4713 5.1196C87.8809 4.11975 88.4296 3.28164 89.1172 2.60527C89.8195 1.92891 90.6242 1.42163 91.5313 1.08345C92.453 0.745264 93.4187 0.576172 94.4282 0.576172C95.467 0.576172 96.4472 0.745264 97.369 1.08345C98.2907 1.42163 99.0954 1.92891 99.783 2.60527C100.471 3.28164 101.012 4.11975 101.407 5.1196C101.802 6.10474 102 7.25162 102 8.56025Z" fill="white"/>
</svg>
